<svg width="122" height="122" viewBox="0 0 122 122" fill="none" xmlns="http://www.w3.org/2000/svg">
<rect width="122" height="122" rx="61" fill="white"/>
<path d="M87.448 42.5712C87.448 56.6644 71.2992 62.0866 67.8293 67.1774C65.2322 70.9643 66.1015 76.2867 58.9409 76.2867C54.2776 76.2867 52.0082 72.4962 52.0082 69.0228C52.0082 56.1158 70.9714 53.1981 70.9714 42.5712C70.9714 36.718 67.0669 33.2517 60.5654 33.2517C46.6894 33.2517 52.1116 47.5587 41.6022 47.5587C37.8046 47.5587 34.552 45.2822 34.552 40.9502C34.552 30.3233 46.6894 20.9005 59.9134 20.9005C73.7894 20.8934 87.448 27.2845 87.448 42.5712ZM59.3791 83.3297C54.502 83.3297 50.4871 87.3376 50.4871 92.2217C50.4871 97.0988 54.502 101.107 59.3791 101.107C64.249 101.107 68.2639 97.0988 68.2639 92.2217C68.2639 87.3376 64.249 83.3297 59.3791 83.3297ZM118 61C118 92.4284 92.4284 118 61 118C29.5716 118 4 92.4284 4 61C4 29.5716 29.5716 4 61 4C92.4284 4 118 29.5681 118 61ZM107.312 61C107.312 35.464 86.536 14.6875 61 14.6875C35.464 14.6875 14.6875 35.464 14.6875 61C14.6875 86.536 35.464 107.312 61 107.312C86.536 107.312 107.312 86.536 107.312 61Z" fill="black"/>
</svg>
